<svg width="200" height="200" viewBox="0 0 200 200" fill="none" xmlns="http://www.w3.org/2000/svg">
<g clip-path="url(#clip0_2582_107)">
<path d="M100 185.715C147.339 185.715 185.715 147.339 185.715 100C185.715 52.6617 147.339 14.2861 100 14.2861C52.6617 14.2861 14.2861 52.6617 14.2861 100C14.2861 147.339 52.6617 185.715 100 185.715Z" stroke="black" stroke-opacity="0.1" stroke-width="29"/>
<path class="anim" d="M100 0C126.522 0 151.957 10.5357 170.711 29.2893C189.464 48.043 200 73.4784 200 100H171.429C171.429 90.6199 169.581 81.3316 165.991 72.6655C162.402 63.9994 157.14 56.1251 150.508 49.4924C143.875 42.8596 136.001 37.5982 127.335 34.0086C118.668 30.419 109.38 28.5714 100 28.5714V0Z" fill="black" fill-opacity="0.1"/>
</g>
<defs>
<clipPath id="clip0_2582_107">
<rect width="200" height="200" fill="white"/>
</clipPath>
</defs>
</svg>
