<svg width="104" height="104" viewBox="0 0 104 104" fill="none" xmlns="http://www.w3.org/2000/svg">
<g clip-path="url(#clip0_212_2)">
<rect width="104" height="104" fill="#6C63FF"/>
<path d="M15.092 17.88H59.78V31.572H57.596L55.16 22.752C54.992 22.08 54.796 21.604 54.572 21.324C54.404 20.988 54.04 20.792 53.48 20.736C52.92 20.624 51.968 20.568 50.624 20.568H41.132V68.196C41.132 70.156 41.216 71.304 41.384 71.64C41.552 71.976 42.084 72.2 42.98 72.312L47.6 72.816V75H27.356V72.816L31.976 72.312C32.872 72.2 33.404 71.976 33.572 71.64C33.74 71.304 33.824 70.156 33.824 68.196V20.568H24.248C22.96 20.568 22.008 20.624 21.392 20.736C20.832 20.792 20.44 20.988 20.216 21.324C20.048 21.604 19.88 22.08 19.712 22.752L17.276 31.572H15.092V17.88Z" fill="white"/>
<path d="M43.032 36.148V33.88H66.888C73.72 33.88 78.956 36.092 82.596 40.516C86.236 44.94 88.056 51.184 88.056 59.248V65.548C88.056 73.668 86.236 79.94 82.596 84.364C78.956 88.788 73.72 91 66.888 91H43.032V88.816L47.652 88.312C48.548 88.2 49.08 87.976 49.248 87.64C49.416 87.304 49.5 86.156 49.5 84.196V40.684C49.5 38.724 49.416 37.576 49.248 37.24C49.08 36.904 48.548 36.68 47.652 36.568L43.032 36.148ZM66.72 36.568H56.808V88.312H66.72C69.744 88.312 72.236 87.752 74.196 86.632C76.156 85.512 77.612 83.608 78.564 80.92C79.572 78.176 80.076 74.452 80.076 69.748V55.048C80.076 50.4 79.572 46.732 78.564 44.044C77.612 41.356 76.156 39.452 74.196 38.332C72.236 37.156 69.744 36.568 66.72 36.568Z" fill="white"/>
</g>
<defs>
<clipPath id="clip0_212_2">
<rect width="104" height="104" fill="white"/>
</clipPath>
</defs>
</svg>
